<svg width="24" height="24" viewBox="0 0 24 24" fill="none" xmlns="http://www.w3.org/2000/svg">
  <rect width="24" height="24" rx="12" fill="black"/>
  <path d="M12.0013 11.1509C14.2521 11.1509 16.0767 9.32629 16.0767 7.07547C16.0767 4.82465 14.2521 3 12.0013 3C9.75043 3 7.92578 4.82465 7.92578 7.07547C7.92578 9.32629 9.75043 11.1509 12.0013 11.1509Z" fill="#88BDF3"/>
  <path d="M12.0013 21.0001C14.2521 21.0001 16.0767 19.1754 16.0767 16.9246C16.0767 14.6738 14.2521 12.8491 12.0013 12.8491C9.75043 12.8491 7.92578 14.6738 7.92578 16.9246C7.92578 19.1754 9.75043 21.0001 12.0013 21.0001Z" fill="#3075EE"/>
  <path d="M16.9251 16.0753C19.1759 16.0753 21.0006 14.2506 21.0006 11.9998C21.0006 9.74897 19.1759 7.92432 16.9251 7.92432C14.6743 7.92432 12.8496 9.74897 12.8496 11.9998C12.8496 14.2506 14.6743 16.0753 16.9251 16.0753Z" fill="#5795F1"/>
  <path d="M7.07547 16.0753C9.32629 16.0753 11.1509 14.2506 11.1509 11.9998C11.1509 9.74897 9.32629 7.92432 7.07547 7.92432C4.82465 7.92432 3 9.74897 3 11.9998C3 14.2506 4.82465 16.0753 7.07547 16.0753Z" fill="#205FEC"/>
  <path d="M11.0401 11.0406C10.3137 10.864 9.64988 10.491 9.12126 9.96234C8.59264 9.43371 8.2196 8.76988 8.04297 8.04346C8.7681 8.22278 9.4305 8.59671 9.9587 9.1249C10.4869 9.65309 10.8608 10.3155 11.0401 11.0406Z" fill="#134BEF"/>
  <path d="M8.03516 15.9649C8.21179 15.2385 8.58482 14.5747 9.11345 14.0461C9.64207 13.5174 10.3059 13.1444 11.0323 12.9678C10.853 13.6929 10.4791 14.3553 9.95088 14.8835C9.42269 15.4117 8.76029 15.7856 8.03516 15.9649Z" fill="#0932E8"/>
  <path d="M12.959 12.9595C13.6854 13.1361 14.3492 13.5091 14.8779 14.0378C15.4065 14.5664 15.7795 15.2302 15.9562 15.9566C15.231 15.7773 14.5686 15.4034 14.0404 14.8752C13.5122 14.347 13.1383 13.6846 12.959 12.9595Z" fill="#164BEA"/>
  <path d="M15.9659 8.03491C15.7893 8.76133 15.4163 9.42517 14.8876 9.95379C14.359 10.4824 13.6952 10.8554 12.9688 11.0321C13.1481 10.3069 13.522 9.64455 14.0502 9.11635C14.5784 8.58816 15.2408 8.21423 15.9659 8.03491Z" fill="#3170F1"/>
</svg>
