<svg width="24" height="24" viewBox="0 0 24 24" fill="none" xmlns="http://www.w3.org/2000/svg">
  <circle cx="12" cy="12" r="12" fill="black"/>
  <g clip-path="url(#clip0_1141_3102)">
    <path d="M16.9688 13.9998V8.60327H18.0535V13.9998H16.9688Z" fill="#F7A600"/>
    <path d="M4.3274 15.6031H2.00195V10.2065H4.23399C5.31875 10.2065 5.95068 10.7979 5.95068 11.7224C5.95068 12.321 5.54468 12.708 5.26371 12.8369C5.59923 12.9882 6.0284 13.3293 6.0284 14.0495C6.0284 15.0573 5.31875 15.6031 4.3274 15.6031ZM4.14806 11.1465H3.08671V12.3896H4.14782C4.60813 12.3896 4.86568 12.1395 4.86568 11.7678C4.86568 11.3968 4.60837 11.1465 4.14806 11.1465ZM4.21806 13.337H3.08695V14.6636H4.21854C4.71023 14.6636 4.94388 14.3604 4.94388 13.9964C4.94388 13.6327 4.70975 13.337 4.21854 13.337H4.21806ZM9.33699 13.3901V15.6031H8.25995V13.3901L6.58985 10.2065H7.76826L8.80619 12.3819L9.82844 10.2065H11.0066L9.33699 13.3901ZM14.082 15.6031H11.7566V10.2065H13.9884C15.0731 10.2065 15.7053 10.7979 15.7053 11.7224C15.7053 12.321 15.2993 12.708 15.0183 12.8369C15.3538 12.9882 15.783 13.3293 15.783 14.0495C15.783 15.0573 15.0734 15.6031 14.082 15.6031ZM13.9027 11.1465H12.8413V12.3896H13.9027C14.363 12.3896 14.6205 12.1395 14.6205 11.7678C14.6205 11.3968 14.363 11.1465 13.9027 11.1465ZM13.9727 13.337H12.8411V14.6636H13.9727C14.4646 14.6636 14.6983 14.3604 14.6983 13.9964C14.6983 13.6327 14.4646 13.337 13.9727 13.337ZM21.5503 11.1467V15.6035H20.4655V11.1465H19.0144V10.2065H23.002V11.1465L21.5503 11.1467Z" fill="white"/>
  </g>
  <defs>
    <clipPath id="clip0_1141_3102">
      <rect width="21" height="8.2068" fill="white" transform="translate(2 8)"/>
    </clipPath>
  </defs>
</svg>
