<svg width="24" height="24" viewBox="0 0 24 24" fill="none" xmlns="http://www.w3.org/2000/svg">
  <rect width="24" height="24" rx="12" fill="black"/>
  <path d="M8.50719 10.5632L12.0033 7.06857L15.5008 10.5661L17.5339 8.53156L12.0033 2.99951L6.47266 8.53014L8.50719 10.5632Z" fill="#F3BA2F"/>
  <path d="M3 12.0006L5.03311 9.96606L7.06764 12.0006L5.03311 14.0337L3 12.0006Z" fill="#F3BA2F"/>
  <path d="M8.50719 13.4365L12.0033 16.9326L15.5008 13.4351L17.5353 15.4667L12.0047 20.9988L6.47266 15.471L8.50719 13.4365Z" fill="#F3BA2F"/>
  <path d="M16.9336 12.0006L18.9667 9.96606L21.0012 11.9992L18.9667 14.0351L16.9336 12.0006Z" fill="#F3BA2F"/>
  <path d="M14.0654 11.9992L12.0024 9.93481L10.4769 11.4604L10.3006 11.6352L9.93945 11.9964L12.0024 14.0579L14.0654 12.0006V11.9992Z" fill="#F3BA2F"/>
</svg>
