<svg width="187" height="42" viewBox="0 0 187 42" fill="none" xmlns="http://www.w3.org/2000/svg">
<path d="M5 30.8114V14.2699C5 13.413 5.99952 12.9448 6.65788 13.4934L14.4447 19.9825C14.5946 20.1074 14.8124 20.1074 14.9624 19.9825L22.7492 13.4934C23.4076 12.9448 24.4071 13.413 24.4071 14.2699V30.8114" stroke="white" stroke-width="3.84099" stroke-linecap="round"/>
<path d="M35.3242 14.1334H44.6234" stroke="white" stroke-width="3.84099" stroke-linecap="round"/>
<path d="M35.3242 22.2197H44.6234" stroke="white" stroke-width="3.84099" stroke-linecap="round"/>
<path d="M35.3242 30.306H44.6234" stroke="white" stroke-width="3.84099" stroke-linecap="round"/>
<path d="M53.9219 13.6281H59.6834C60.3532 13.6281 60.8963 14.1711 60.8963 14.841V30.4071" stroke="white" stroke-width="3.84099" stroke-linecap="round"/>
<path d="M71.1055 30.4071L77.6596 13.8492C78.0642 12.8272 79.5107 12.8272 79.9152 13.8492L86.4694 30.4071" stroke="white" stroke-width="3.84099" stroke-linecap="round"/>
<path d="M140.445 12.314C140.445 12.314 140.445 17.5974 140.445 21.0068C140.445 24.4162 140.445 29.6995 140.445 29.6995" stroke="white" stroke-width="3.84099" stroke-linecap="round"/>
<path d="M151.766 30.1038C151.766 30.1038 151.766 24.5629 151.766 21.0067C151.766 19.6562 151.766 18.0193 151.766 16.5084C151.766 13.9684 153.825 11.9097 156.365 11.9097V11.9097C158.905 11.9097 160.964 13.9687 160.964 16.5087L160.964 19.8949M159.549 25.4542L162.985 30.1038" stroke="white" stroke-width="3.84099" stroke-linecap="round"/>
<path d="M105.674 24.2413C105.674 24.2413 105.674 20.7353 105.674 18.4798C105.674 18.2549 105.674 18.0176 105.674 17.7726C105.674 14.9814 103.412 12.7183 100.62 12.7183V12.7183C97.8291 12.7183 95.5664 14.9809 95.5664 17.7721C95.5664 18.9887 95.5664 20.2437 95.5664 21.31C95.5664 22.1409 95.5664 23.0864 95.5664 24.0391C95.5664 27.2769 98.1912 29.9017 101.429 29.9017H109.717" stroke="white" stroke-width="3.84099" stroke-linecap="round"/>
<path d="M118.613 12.7184C118.613 12.7184 118.613 17.9511 118.613 21.3101C118.613 22.3763 118.613 23.6314 118.613 24.848C118.613 27.6392 120.876 29.9017 123.667 29.9017V29.9017C126.458 29.9017 128.721 27.6392 128.721 24.848C128.721 23.6314 128.721 22.3763 128.721 21.3101C128.721 17.9511 128.721 12.7184 128.721 12.7184" stroke="white" stroke-width="3.84099" stroke-linecap="round"/>
<path d="M171.9 30.1038C171.9 30.1038 171.102 23.1439 172.284 19.7938C173.958 15.0513 178.652 12.314 178.652 12.314M181.199 29.6995L173.542 17.2668" stroke="white" stroke-width="3.84099" stroke-linecap="round"/>
</svg>
